# xmcd
#
# Track frame offsets:
# 150
# 18244
# 36845
# 54943
# 74304
# 95229
# 112055
# 130196
# 150945
# 165217
#
# Disc length: 2535 seconds
#
#
# Revision: 0
# Processed by: cddbd v1.5.2PL0 Copyright (c) Steve Scherf et al.
# Submitted via: FreeRIP 2.951 
#
DISCID=7609e50a
DTITLE=Gillian Welch - Revival
DYEAR=1900
DGENRE=Country
TTITLE0=Orphan Girl
TTITLE1=Annabelle
TTITLE2=Pass You By
TTITLE3=Barroom Girls
TTITLE4=One More Dollar
TTITLE5=By the Mark
TTITLE6=Paper Wings
TTITLE7=Tear My Stillhouse Down
TTITLE8=Acony Bell
TTITLE9=Only One and Only
EXTD=
EXTT0=
EXTT1=
EXTT2=
EXTT3=
EXTT4=
EXTT5=
EXTT6=
EXTT7=
EXTT8=
EXTT9=
PLAYORDER=
